<svg id="visual" viewBox="0 0 900 600" width="900" height="600" xmlns="http://www.w3.org/2000/svg" xmlns:xlink="http://www.w3.org/1999/xlink" version="1.1"><rect width="900" height="600" fill="#A8A89E"></rect><g><g transform="translate(423 591)"><path d="M0 -42.9L23.2 -36.1L39.1 -17.8L42.5 6.1L32.5 28.1L12.1 41.2L-12.1 41.2L-32.5 28.1L-42.5 6.1L-39.1 -17.8L-23.2 -36.1Z" fill="none" stroke="#001122" stroke-width="2"></path></g><g transform="translate(219 200)"><path d="M0 -35L18.9 -29.4L31.8 -14.5L34.6 5L26.5 22.9L9.9 33.6L-9.9 33.6L-26.5 22.9L-34.6 5L-31.8 -14.5L-18.9 -29.4Z" fill="none" stroke="#001122" stroke-width="2"></path></g><g transform="translate(832 366)"><path d="M0 -14L7.6 -11.8L12.7 -5.8L13.9 2L10.6 9.2L3.9 13.4L-3.9 13.4L-10.6 9.2L-13.9 2L-12.7 -5.8L-7.6 -11.8Z" fill="none" stroke="#001122" stroke-width="2"></path></g><g transform="translate(527 331)"><path d="M0 -26L14.1 -21.9L23.7 -10.8L25.7 3.7L19.6 17L7.3 24.9L-7.3 24.9L-19.6 17L-25.7 3.7L-23.7 -10.8L-14.1 -21.9Z" fill="none" stroke="#001122" stroke-width="2"></path></g><g transform="translate(766 170)"><path d="M0 -18L9.7 -15.1L16.4 -7.5L17.8 2.6L13.6 11.8L5.1 17.3L-5.1 17.3L-13.6 11.8L-17.8 2.6L-16.4 -7.5L-9.7 -15.1Z" fill="none" stroke="#001122" stroke-width="2"></path></g><g transform="translate(46 479)"><path d="M0 -41L22.2 -34.5L37.3 -17L40.6 5.8L31 26.8L11.6 39.3L-11.6 39.3L-31 26.8L-40.6 5.8L-37.3 -17L-22.2 -34.5Z" fill="none" stroke="#001122" stroke-width="2"></path></g><g transform="translate(323 179)"><path d="M0 -22L11.9 -18.5L20 -9.1L21.8 3.1L16.6 14.4L6.2 21.1L-6.2 21.1L-16.6 14.4L-21.8 3.1L-20 -9.1L-11.9 -18.5Z" fill="none" stroke="#001122" stroke-width="2"></path></g><g transform="translate(153 378)"><path d="M0 -23L12.4 -19.3L20.9 -9.6L22.8 3.3L17.4 15.1L6.5 22.1L-6.5 22.1L-17.4 15.1L-22.8 3.3L-20.9 -9.6L-12.4 -19.3Z" fill="none" stroke="#001122" stroke-width="2"></path></g><g transform="translate(81 101)"><path d="M0 -13L7 -10.9L11.8 -5.4L12.9 1.9L9.8 8.5L3.7 12.5L-3.7 12.5L-9.8 8.5L-12.9 1.9L-11.8 -5.4L-7 -10.9Z" fill="none" stroke="#001122" stroke-width="2"></path></g><g transform="translate(560 115)"><path d="M0 -13L7 -10.9L11.8 -5.4L12.9 1.9L9.8 8.5L3.7 12.5L-3.7 12.5L-9.8 8.5L-12.9 1.9L-11.8 -5.4L-7 -10.9Z" fill="none" stroke="#001122" stroke-width="2"></path></g><g transform="translate(866 122)"><path d="M0 -31L16.8 -26.1L28.2 -12.9L30.7 4.4L23.4 20.3L8.7 29.7L-8.7 29.7L-23.4 20.3L-30.7 4.4L-28.2 -12.9L-16.8 -26.1Z" fill="none" stroke="#001122" stroke-width="2"></path></g><g transform="translate(294 314)"><path d="M0 -38L20.5 -32L34.6 -15.8L37.6 5.4L28.7 24.9L10.7 36.5L-10.7 36.5L-28.7 24.9L-37.6 5.4L-34.6 -15.8L-20.5 -32Z" fill="none" stroke="#001122" stroke-width="2"></path></g><g transform="translate(820 484)"><path d="M0 -19L10.3 -16L17.3 -7.9L18.8 2.7L14.4 12.4L5.4 18.2L-5.4 18.2L-14.4 12.4L-18.8 2.7L-17.3 -7.9L-10.3 -16Z" fill="none" stroke="#001122" stroke-width="2"></path></g><g transform="translate(592 540)"><path d="M0 -39L21.1 -32.8L35.5 -16.2L38.6 5.6L29.5 25.5L11 37.4L-11 37.4L-29.5 25.5L-38.6 5.6L-35.5 -16.2L-21.1 -32.8Z" fill="none" stroke="#001122" stroke-width="2"></path></g><g transform="translate(431 313)"><path d="M0 -40L21.6 -33.7L36.4 -16.6L39.6 5.7L30.2 26.2L11.3 38.4L-11.3 38.4L-30.2 26.2L-39.6 5.7L-36.4 -16.6L-21.6 -33.7Z" fill="none" stroke="#001122" stroke-width="2"></path></g><g transform="translate(523 218)"><path d="M0 -40L21.6 -33.7L36.4 -16.6L39.6 5.7L30.2 26.2L11.3 38.4L-11.3 38.4L-30.2 26.2L-39.6 5.7L-36.4 -16.6L-21.6 -33.7Z" fill="none" stroke="#001122" stroke-width="2"></path></g><g transform="translate(176 121)"><path d="M0 -10L5.4 -8.4L9.1 -4.2L9.9 1.4L7.6 6.5L2.8 9.6L-2.8 9.6L-7.6 6.5L-9.9 1.4L-9.1 -4.2L-5.4 -8.4Z" fill="none" stroke="#001122" stroke-width="2"></path></g><g transform="translate(616 12)"><path d="M0 -23L12.4 -19.3L20.9 -9.6L22.8 3.3L17.4 15.1L6.5 22.1L-6.5 22.1L-17.4 15.1L-22.8 3.3L-20.9 -9.6L-12.4 -19.3Z" fill="none" stroke="#001122" stroke-width="2"></path></g><g transform="translate(468 452)"><path d="M0 -24L13 -20.2L21.8 -10L23.8 3.4L18.1 15.7L6.8 23L-6.8 23L-18.1 15.7L-23.8 3.4L-21.8 -10L-13 -20.2Z" fill="none" stroke="#001122" stroke-width="2"></path></g><g transform="translate(675 369)"><path d="M0 -22L11.9 -18.5L20 -9.1L21.8 3.1L16.6 14.4L6.2 21.1L-6.2 21.1L-16.6 14.4L-21.8 3.1L-20 -9.1L-11.9 -18.5Z" fill="none" stroke="#001122" stroke-width="2"></path></g><g transform="translate(715 248)"><path d="M0 -37L20 -31.1L33.7 -15.4L36.6 5.3L28 24.2L10.4 35.5L-10.4 35.5L-28 24.2L-36.6 5.3L-33.7 -15.4L-20 -31.1Z" fill="none" stroke="#001122" stroke-width="2"></path></g><g transform="translate(255 486)"><path d="M0 -14L7.6 -11.8L12.7 -5.8L13.9 2L10.6 9.2L3.9 13.4L-3.9 13.4L-10.6 9.2L-13.9 2L-12.7 -5.8L-7.6 -11.8Z" fill="none" stroke="#001122" stroke-width="2"></path></g><g transform="translate(150 580)"><path d="M0 -40L21.6 -33.7L36.4 -16.6L39.6 5.7L30.2 26.2L11.3 38.4L-11.3 38.4L-30.2 26.2L-39.6 5.7L-36.4 -16.6L-21.6 -33.7Z" fill="none" stroke="#001122" stroke-width="2"></path></g><g transform="translate(32 314)"><path d="M0 -37L20 -31.1L33.7 -15.4L36.6 5.3L28 24.2L10.4 35.5L-10.4 35.5L-28 24.2L-36.6 5.3L-33.7 -15.4L-20 -31.1Z" fill="none" stroke="#001122" stroke-width="2"></path></g><g transform="translate(767 68)"><path d="M0 -41L22.2 -34.5L37.3 -17L40.6 5.8L31 26.8L11.6 39.3L-11.6 39.3L-31 26.8L-40.6 5.8L-37.3 -17L-22.2 -34.5Z" fill="none" stroke="#001122" stroke-width="2"></path></g><g transform="translate(373 447)"><path d="M0 -26L14.1 -21.9L23.7 -10.8L25.7 3.7L19.6 17L7.3 24.9L-7.3 24.9L-19.6 17L-25.7 3.7L-23.7 -10.8L-14.1 -21.9Z" fill="none" stroke="#001122" stroke-width="2"></path></g><g transform="translate(391 104)"><path d="M0 -24L13 -20.2L21.8 -10L23.8 3.4L18.1 15.7L6.8 23L-6.8 23L-18.1 15.7L-23.8 3.4L-21.8 -10L-13 -20.2Z" fill="none" stroke="#001122" stroke-width="2"></path></g><g transform="translate(850 231)"><path d="M0 -16L8.7 -13.5L14.6 -6.6L15.8 2.3L12.1 10.5L4.5 15.4L-4.5 15.4L-12.1 10.5L-15.8 2.3L-14.6 -6.6L-8.7 -13.5Z" fill="none" stroke="#001122" stroke-width="2"></path></g><g transform="translate(568 451)"><path d="M0 -38L20.5 -32L34.6 -15.8L37.6 5.4L28.7 24.9L10.7 36.5L-10.7 36.5L-28.7 24.9L-37.6 5.4L-34.6 -15.8L-20.5 -32Z" fill="none" stroke="#001122" stroke-width="2"></path></g><g transform="translate(147 270)"><path d="M0 -22L11.9 -18.5L20 -9.1L21.8 3.1L16.6 14.4L6.2 21.1L-6.2 21.1L-16.6 14.4L-21.8 3.1L-20 -9.1L-11.9 -18.5Z" fill="none" stroke="#001122" stroke-width="2"></path></g><g transform="translate(703 599)"><path d="M0 -21L11.4 -17.7L19.1 -8.7L20.8 3L15.9 13.8L5.9 20.1L-5.9 20.1L-15.9 13.8L-20.8 3L-19.1 -8.7L-11.4 -17.7Z" fill="none" stroke="#001122" stroke-width="2"></path></g><g transform="translate(346 549)"><path d="M0 -19L10.3 -16L17.3 -7.9L18.8 2.7L14.4 12.4L5.4 18.2L-5.4 18.2L-14.4 12.4L-18.8 2.7L-17.3 -7.9L-10.3 -16Z" fill="none" stroke="#001122" stroke-width="2"></path></g><g transform="translate(615 209)"><path d="M0 -35L18.9 -29.4L31.8 -14.5L34.6 5L26.5 22.9L9.9 33.6L-9.9 33.6L-26.5 22.9L-34.6 5L-31.8 -14.5L-18.9 -29.4Z" fill="none" stroke="#001122" stroke-width="2"></path></g><g transform="translate(316 16)"><path d="M0 -39L21.1 -32.8L35.5 -16.2L38.6 5.6L29.5 25.5L11 37.4L-11 37.4L-29.5 25.5L-38.6 5.6L-35.5 -16.2L-21.1 -32.8Z" fill="none" stroke="#001122" stroke-width="2"></path></g><g transform="translate(518 24)"><path d="M0 -20L10.8 -16.8L18.2 -8.3L19.8 2.8L15.1 13.1L5.6 19.2L-5.6 19.2L-15.1 13.1L-19.8 2.8L-18.2 -8.3L-10.8 -16.8Z" fill="none" stroke="#001122" stroke-width="2"></path></g><g transform="translate(704 3)"><path d="M0 -25L13.5 -21L22.7 -10.4L24.7 3.6L18.9 16.4L7 24L-7 24L-18.9 16.4L-24.7 3.6L-22.7 -10.4L-13.5 -21Z" fill="none" stroke="#001122" stroke-width="2"></path></g><g transform="translate(31 199)"><path d="M0 -28L15.1 -23.6L25.5 -11.6L27.7 4L21.2 18.3L7.9 26.9L-7.9 26.9L-21.2 18.3L-27.7 4L-25.5 -11.6L-15.1 -23.6Z" fill="none" stroke="#001122" stroke-width="2"></path></g><g transform="translate(114 19)"><path d="M0 -19L10.3 -16L17.3 -7.9L18.8 2.7L14.4 12.4L5.4 18.2L-5.4 18.2L-14.4 12.4L-18.8 2.7L-17.3 -7.9L-10.3 -16Z" fill="none" stroke="#001122" stroke-width="2"></path></g><g transform="translate(5 9)"><path d="M0 -37L20 -31.1L33.7 -15.4L36.6 5.3L28 24.2L10.4 35.5L-10.4 35.5L-28 24.2L-36.6 5.3L-33.7 -15.4L-20 -31.1Z" fill="none" stroke="#001122" stroke-width="2"></path></g><g transform="translate(210 29)"><path d="M0 -27L14.6 -22.7L24.6 -11.2L26.7 3.8L20.4 17.7L7.6 25.9L-7.6 25.9L-20.4 17.7L-26.7 3.8L-24.6 -11.2L-14.6 -22.7Z" fill="none" stroke="#001122" stroke-width="2"></path></g><g transform="translate(862 11)"><path d="M0 -34L18.4 -28.6L30.9 -14.1L33.7 4.8L25.7 22.3L9.6 32.6L-9.6 32.6L-25.7 22.3L-33.7 4.8L-30.9 -14.1L-18.4 -28.6Z" fill="none" stroke="#001122" stroke-width="2"></path></g><g transform="translate(145 482)"><path d="M0 -22L11.9 -18.5L20 -9.1L21.8 3.1L16.6 14.4L6.2 21.1L-6.2 21.1L-16.6 14.4L-21.8 3.1L-20 -9.1L-11.9 -18.5Z" fill="none" stroke="#001122" stroke-width="2"></path></g><g transform="translate(712 502)"><path d="M0 -38L20.5 -32L34.6 -15.8L37.6 5.4L28.7 24.9L10.7 36.5L-10.7 36.5L-28.7 24.9L-37.6 5.4L-34.6 -15.8L-20.5 -32Z" fill="none" stroke="#001122" stroke-width="2"></path></g><g transform="translate(895 549)"><path d="M0 -15L8.1 -12.6L13.6 -6.2L14.8 2.1L11.3 9.8L4.2 14.4L-4.2 14.4L-11.3 9.8L-14.8 2.1L-13.6 -6.2L-8.1 -12.6Z" fill="none" stroke="#001122" stroke-width="2"></path></g><g transform="translate(682 102)"><path d="M0 -22L11.9 -18.5L20 -9.1L21.8 3.1L16.6 14.4L6.2 21.1L-6.2 21.1L-16.6 14.4L-21.8 3.1L-20 -9.1L-11.9 -18.5Z" fill="none" stroke="#001122" stroke-width="2"></path></g><g transform="translate(419 4)"><path d="M0 -36L19.5 -30.3L32.7 -15L35.6 5.1L27.2 23.6L10.1 34.5L-10.1 34.5L-27.2 23.6L-35.6 5.1L-32.7 -15L-19.5 -30.3Z" fill="none" stroke="#001122" stroke-width="2"></path></g><g transform="translate(13 573)"><path d="M0 -14L7.6 -11.8L12.7 -5.8L13.9 2L10.6 9.2L3.9 13.4L-3.9 13.4L-10.6 9.2L-13.9 2L-12.7 -5.8L-7.6 -11.8Z" fill="none" stroke="#001122" stroke-width="2"></path></g><g transform="translate(789 596)"><path d="M0 -33L17.8 -27.8L30 -13.7L32.7 4.7L24.9 21.6L9.3 31.7L-9.3 31.7L-24.9 21.6L-32.7 4.7L-30 -13.7L-17.8 -27.8Z" fill="none" stroke="#001122" stroke-width="2"></path></g><g transform="translate(394 229)"><path d="M0 -40L21.6 -33.7L36.4 -16.6L39.6 5.7L30.2 26.2L11.3 38.4L-11.3 38.4L-30.2 26.2L-39.6 5.7L-36.4 -16.6L-21.6 -33.7Z" fill="none" stroke="#001122" stroke-width="2"></path></g><g transform="translate(259 395)"><path d="M0 -14L7.6 -11.8L12.7 -5.8L13.9 2L10.6 9.2L3.9 13.4L-3.9 13.4L-10.6 9.2L-13.9 2L-12.7 -5.8L-7.6 -11.8Z" fill="none" stroke="#001122" stroke-width="2"></path></g><g transform="translate(747 420)"><path d="M0 -32L17.3 -26.9L29.1 -13.3L31.7 4.6L24.2 21L9 30.7L-9 30.7L-24.2 21L-31.7 4.6L-29.1 -13.3L-17.3 -26.9Z" fill="none" stroke="#001122" stroke-width="2"></path></g><g transform="translate(279 101)"><path d="M0 -14L7.6 -11.8L12.7 -5.8L13.9 2L10.6 9.2L3.9 13.4L-3.9 13.4L-10.6 9.2L-13.9 2L-12.7 -5.8L-7.6 -11.8Z" fill="none" stroke="#001122" stroke-width="2"></path></g><g transform="translate(253 589)"><path d="M0 -38L20.5 -32L34.6 -15.8L37.6 5.4L28.7 24.9L10.7 36.5L-10.7 36.5L-28.7 24.9L-37.6 5.4L-34.6 -15.8L-20.5 -32Z" fill="none" stroke="#001122" stroke-width="2"></path></g><g transform="translate(518 597)"><path d="M0 -41L22.2 -34.5L37.3 -17L40.6 5.8L31 26.8L11.6 39.3L-11.6 39.3L-31 26.8L-40.6 5.8L-37.3 -17L-22.2 -34.5Z" stroke="#001122" fill="none" stroke-width="2"></path></g><g transform="translate(632 293)"><path d="M0 -35L18.9 -29.4L31.8 -14.5L34.6 5L26.5 22.9L9.9 33.6L-9.9 33.6L-26.5 22.9L-34.6 5L-31.8 -14.5L-18.9 -29.4Z" stroke="#001122" fill="none" stroke-width="2"></path></g></g></svg>